<?xml version="1.0" standalone="no"?><svg xmlns="http://www.w3.org/2000/svg" viewBox="0 0 1440 320"><path fill="#FF3A3A" fill-opacity="1" d="M0,96L24,128C48,160,96,224,144,240C192,256,240,224,288,218.7C336,213,384,235,432,224C480,213,528,171,576,165.3C624,160,672,192,720,224C768,256,816,288,864,256C912,224,960,128,1008,112C1056,96,1104,160,1152,154.7C1200,149,1248,75,1296,42.7C1344,11,1392,21,1416,26.7L1440,32L1440,320L1416,320C1392,320,1344,320,1296,320C1248,320,1200,320,1152,320C1104,320,1056,320,1008,320C960,320,912,320,864,320C816,320,768,320,720,320C672,320,624,320,576,320C528,320,480,320,432,320C384,320,336,320,288,320C240,320,192,320,144,320C96,320,48,320,24,320L0,320Z"></path></svg>